<svg id="Layer_1" xmlns="http://www.w3.org/2000/svg" viewBox="181 -45 380.8 101.8"><style>.st0{fill:#0071b9}</style><title>Tenable.io</title><path class="st0" d="M204.1 29.4c-1.7.5-3.4.7-5.2.7-3.8 0-6.8-1.1-8.8-3.3s-3-5.3-3-9.5V-3.3H181V-10h6.1v-8.7l9.5-1.1v9.8h9.1l-1 6.8h-8.1v20.3c-.1 1.5.2 2.9 1 4.1.8.9 2 1.4 3.1 1.3 1.7-.1 3.3-.6 4.6-1.5l3.3 6.1c-1.3 1-2.9 1.8-4.5 2.3zM245.1 12.4h-24.5c.3 3.8 1.3 6.5 3 8.1 1.8 1.7 4.1 2.6 6.6 2.5 1.7 0 3.3-.3 4.9-.8 1.7-.7 3.4-1.6 4.9-2.6l3.9 5.4c-4.1 3.4-9.2 5.3-14.5 5.2-6 0-10.5-1.8-13.8-5.5-3.2-3.6-4.8-8.6-4.8-14.9-.1-3.7.6-7.3 2.1-10.8 1.2-3 3.3-5.6 6-7.5 2.7-1.8 6-2.8 9.3-2.7 5.5 0 9.7 1.7 12.7 5.2s4.5 8.3 4.5 14.5c-.1.5-.2 1.8-.3 3.9zm-9.2-6.6c0-6.8-2.5-10.3-7.6-10.3-2.1-.1-4.1.9-5.4 2.5-1.3 1.7-2.1 4.4-2.3 8.2H236v-.4zM283-8c1.9 2.1 2.9 5 2.9 8.8V29h-9.5V2.2c0-2.3-.4-3.9-1.2-4.9-.9-1-2.2-1.5-3.6-1.4-1.6 0-3.1.5-4.4 1.5-1.5 1.2-2.8 2.7-3.8 4.4V29H254v-39h8.2l.7 5.2c3.2-4.2 7.2-6.3 11.9-6.3 3.5-.1 6.3 1 8.2 3.1zM326.5 22c.6.8 1.3 1.4 2.2 1.7l-2 6.3c-1.9-.1-3.8-.6-5.4-1.6-1.5-1-2.6-2.4-3.2-4.1-1.2 1.9-3 3.4-5 4.4-2.1 1-4.4 1.5-6.7 1.4-3.9 0-7-1.1-9.2-3.3-2.3-2.3-3.5-5.5-3.4-8.7 0-4.2 1.5-7.5 4.6-9.7S305.9 5 311.6 5h4.9V2.8c0-2.5-.6-4.3-1.7-5.3s-3-1.5-5.5-1.5c-3.5.1-7 .8-10.3 2.1l-2.2-6.4c4.5-1.8 9.3-2.8 14.2-2.8 10 0 15 4.5 15 13.4v16.4c-.3 1.1-.1 2.2.5 3.3zm-10-3.6v-7.9h-3.9c-6.1 0-9.2 2.3-9.2 6.8-.1 1.6.4 3.1 1.4 4.4 1.1 1.1 2.6 1.7 4.1 1.6 3.3-.1 5.8-1.7 7.6-4.9zM368.1-5.8c2.6 3.6 3.8 8.7 3.8 15.2.1 3.7-.6 7.3-1.9 10.7-1.1 2.9-2.9 5.4-5.4 7.3-2.4 1.8-5.3 2.7-8.2 2.6-2 0-4-.4-5.8-1.3-1.8-.9-3.3-2.2-4.5-3.8l-.6 4h-8.3v-54.7l9.5-1v21c1.2-1.7 2.8-3 4.6-4 1.9-1 3.9-1.5 6-1.4 4.3-.1 8.4 1.9 10.8 5.4zm-8.2 25.5c1.4-2.2 2.1-5.6 2.1-10.3 0-4.9-.7-8.4-2-10.5-1.2-2-3.3-3.1-5.6-3.1-3 0-5.6 1.8-7.8 5.3v17.3c.8 1.3 1.9 2.5 3.2 3.3 1.2.8 2.6 1.2 4.1 1.1 2.5.2 4.8-1 6-3.1zM390.8 21.8c.4.5 1.1.8 1.7.7.8 0 1.5-.1 2.2-.4l2 6.7c-2.1.9-4.4 1.3-6.7 1.3-3 0-5.2-.8-6.8-2.6-1.6-1.7-2.4-4.2-2.4-7.4v-45.8l9.5-1v46.2c0 .8.1 1.6.5 2.3zM434.1 12.4h-24.5c.3 3.8 1.3 6.5 3 8.1 1.8 1.7 4.2 2.6 6.6 2.5 1.7 0 3.3-.3 4.9-.8 1.7-.7 3.4-1.6 4.9-2.6l3.9 5.4c-4.1 3.4-9.2 5.3-14.5 5.2-6 0-10.5-1.8-13.8-5.5-3.2-3.6-4.8-8.6-4.8-14.9-.1-3.7.6-7.4 2.1-10.8 1.2-3 3.3-5.6 6-7.5 2.7-1.8 6-2.8 9.3-2.7 5.5 0 9.7 1.7 12.7 5.2s4.5 8.3 4.5 14.5c-.1.5-.1 1.8-.3 3.9zm-9.2-6.6c0-6.8-2.5-10.3-7.6-10.3-2.1-.1-4.1.9-5.4 2.5-1.3 1.7-2.1 4.4-2.3 8.2H425l-.1-.4zM547 17.1c-.3-1.1-1.3-4.9-2.3-8.6l-7.8-29.1c-1-3.7-2-7.6-2.3-8.6-.2-.8-.7-1.5-1.2-2-.6-.6-1.2-1-2-1.2l-8.6-2.3-29.2-7.8-8.6-2.3c-1.6-.4-3.3.1-4.5 1.2l-6.3 6.3L452.9-16l-6.3 6.3c-1.1 1.2-1.6 2.9-1.2 4.5l2.3 8.6 7.8 29.1c1 3.7 2 7.6 2.3 8.6.2.8.7 1.4 1.2 2 .5.6 1.2 1 2 1.2l8.6 2.3 29.1 7.8 8.6 2.3c1.6.4 3.3-.1 4.5-1.2l6.3-6.3 21.3-21.3 6.3-6.3c1.2-1.3 1.6-2.9 1.3-4.5zM469 28c-1 1-2.3 1.5-3.7 1.5-1.4 0-2.7-.5-3.7-1.5s-1.5-2.3-1.5-3.7c-.1-2.8 2.1-5 4.9-5.1h.2c1.4 0 2.7.5 3.7 1.5s1.5 2.3 1.5 3.6c.1 1.4-.5 2.7-1.4 3.7zm19 .6h-6.8v-38.9h6.8v38.9zm0-49.6c-.9.9-2.2 1.3-3.5 1.3-1.3 0-2.5-.4-3.4-1.3-.9-.9-1.4-2.1-1.3-3.3 0-1.2.4-2.4 1.3-3.3.9-.9 2.1-1.4 3.4-1.3 1.3-.1 2.5.4 3.5 1.3.9.9 1.4 2.1 1.3 3.3.1 1.2-.4 2.4-1.3 3.3zm43.9 40.8c-1.3 2.9-3.3 5.4-6 7.2-2.8 1.7-6 2.6-9.3 2.6-5.5 0-9.7-1.8-12.8-5.5-3-3.6-4.6-8.6-4.6-14.8-.1-3.7.6-7.3 2.1-10.7 1.3-2.9 3.3-5.4 6-7.2 2.8-1.8 6.1-2.6 9.4-2.5 5.5 0 9.7 1.8 12.7 5.5 3 3.6 4.5 8.6 4.5 14.8.1 3.6-.6 7.2-2 10.6z"/><path class="st0" d="M516.7-5.7c-6.7 0-10.1 5-10.1 14.9s3.3 14.9 10 14.8c6.7 0 10-5 10-14.9s-3.3-14.9-9.9-14.8zM546.3-40.5v8.8h-2.1v-8.8h-3.4v-1.7h9.1l-.3 1.7h-3.3zm13.4 8.8l-.2-5.7v-1.5c0-.5 0-1 .1-1.6l-2.4 7.7h-1.8l-2.7-7.6c.1.6.1 1.2.1 1.9v1.1l-.2 5.7h-1.9l.4-10.6h2.8l2.5 7.4 2.2-7.4h2.9l.4 10.6h-2.2z"/></svg>